HIERARCHY
ROOT Hips
{
	OFFSET 0.0000 0.0000 0.0000
	CHANNELS 6 Xposition Yposition Zposition Zrotation Xrotation Yrotation
	JOINT Spine1
	{
		OFFSET -0.0137 5.0038 -0.0537
		CHANNELS 3 Zrotation Xrotation Yrotation
		JOINT Spine2
		{
			OFFSET -0.0000 7.1253 -0.0298
			CHANNELS 3 Zrotation Xrotation Yrotation
			JOINT Chest
			{
				OFFSET -0.0000 7.5501 -0.8160
				CHANNELS 3 Zrotation Xrotation Yrotation
				JOINT Neck1
				{
					OFFSET -0.1817 26.3113 -0.5533
					CHANNELS 3 Zrotation Xrotation Yrotation
					JOINT Neck2
					{
						OFFSET -0.0000 7.7094 2.3026
						CHANNELS 3 Zrotation Xrotation Yrotation
						JOINT Head
						{
							OFFSET -0.0000 6.1289 1.9537
							CHANNELS 3 Zrotation Xrotation Yrotation
							JOINT Jaw
							{
								OFFSET 0.0026 0.4756 3.0949
								CHANNELS 3 Zrotation Xrotation Yrotation
								End Site
								{
									OFFSET 0.0 1.0 0.0
								}
							}
							JOINT LeftEye
							{
								OFFSET 3.2064 5.3802 7.5869
								CHANNELS 3 Zrotation Xrotation Yrotation
								End Site
								{
									OFFSET 0.0 1.0 0.0
								}
							}
							JOINT RightEye
							{
								OFFSET -3.2224 5.3619 7.5582
								CHANNELS 3 Zrotation Xrotation Yrotation
								End Site
								{
									OFFSET 0.0 1.0 0.0
								}
							}
						}
					}
				}
				JOINT LeftShoulder
				{
					OFFSET 1.6217 23.2372 5.1134
					CHANNELS 3 Zrotation Xrotation Yrotation
					JOINT LeftArm
					{
						OFFSET 14.9198 0.0000 -5.5023
						CHANNELS 3 Zrotation Xrotation Yrotation
						JOINT LeftForeArm
						{
							OFFSET 28.7393 0.0000 -0.0026
							CHANNELS 3 Zrotation Xrotation Yrotation
							JOINT LeftHand
							{
								OFFSET 27.0940 -0.0000 0.0026
								CHANNELS 3 Zrotation Xrotation Yrotation
								JOINT LeftHandThumbEnd
								{
									OFFSET 12.2686 -3.2202 4.8331
									CHANNELS 3 Zrotation Xrotation Yrotation
									End Site
									{
										OFFSET 0.0 1.0 0.0
									}
								}
								JOINT LeftHandMiddleEnd
								{
									OFFSET 19.0120 -0.3129 -0.0340
									CHANNELS 3 Zrotation Xrotation Yrotation
									End Site
									{
										OFFSET 0.0 1.0 0.0
									}
								}
							}
						}
					}
				}
				JOINT RightShoulder
				{
					OFFSET -1.3801 23.1803 5.2142
					CHANNELS 3 Zrotation Xrotation Yrotation
					JOINT RightArm
					{
						OFFSET -15.0372 0.0000 -5.5456
						CHANNELS 3 Zrotation Xrotation Yrotation
						JOINT RightForeArm
						{
							OFFSET -28.7366 0.0000 -0.0026
							CHANNELS 3 Zrotation Xrotation Yrotation
							JOINT RightHand
							{
								OFFSET -27.1336 -0.0000 0.0026
								CHANNELS 3 Zrotation Xrotation Yrotation
								JOINT RightHandThumbEnd
								{
									OFFSET -12.2642 -3.2115 4.8040
									CHANNELS 3 Zrotation Xrotation Yrotation
									End Site
									{
										OFFSET 0.0 1.0 0.0
									}
								}
								JOINT RightHandMiddleEnd
								{
									OFFSET -19.0006 -0.3066 -0.0316
									CHANNELS 3 Zrotation Xrotation Yrotation
									End Site
									{
										OFFSET 0.0 1.0 0.0
									}
								}
							}
						}
					}
				}
			}
		}
	}
	JOINT LeftLeg
	{
		OFFSET 10.0432 -8.4345 2.5957
		CHANNELS 3 Zrotation Xrotation Yrotation
		JOINT LeftShin
		{
			OFFSET -0.0000 -43.2218 -0.8029
			CHANNELS 3 Zrotation Xrotation Yrotation
			JOINT LeftFoot
			{
				OFFSET 0.0000 -42.1551 -3.4815
				CHANNELS 3 Zrotation Xrotation Yrotation
				JOINT LeftToeBase
				{
					OFFSET 0.0000 -5.0595 13.2315
					CHANNELS 3 Zrotation Xrotation Yrotation
					End Site
					{
						OFFSET 0.0 1.0 0.0
					}
				}
			}
		}
	}
	JOINT RightLeg
	{
		OFFSET -10.0473 -8.2953 2.6203
		CHANNELS 3 Zrotation Xrotation Yrotation
		JOINT RightShin
		{
			OFFSET 0.0000 -43.3622 -0.8056
			CHANNELS 3 Zrotation Xrotation Yrotation
			JOINT RightFoot
			{
				OFFSET 0.0000 -42.1174 -3.4784
				CHANNELS 3 Zrotation Xrotation Yrotation
				JOINT RightToeBase
				{
					OFFSET -0.0000 -5.0796 13.2842
					CHANNELS 3 Zrotation Xrotation Yrotation
					End Site
					{
						OFFSET 0.0 1.0 0.0
					}
				}
			}
		}
	}
}
MOTION
Frames: 8
Frame Time: 0.033333
-26.9174 90.6523 -168.2021 -1.1088 -9.4497 -5.2822 0.4995 9.1337 -0.0390 -0.8145 -1.9223 -0.7119 -4.3979 20.2719 -3.6561 -0.4153 15.8901 2.9847 0.9192 -3.8001 3.1686 3.1914 -10.8832 2.1755 -0.0408 -0.0501 0.1346 0.6089 -10.4995 -3.6723 -0.7013 -10.5371 3.9574 -8.7400 15.9576 -18.7602 -33.6970 -39.9073 -27.2087 2.0981 0.5642 -60.2536 32.9052 30.6180 7.7249 -15.7214 11.0094 16.1630 -60.5400 1.3458 2.7135 -5.1722 17.2595 12.7871 52.3701 -45.1829 23.4325 -0.9188 1.1807 91.9670 -19.7603 38.2121 -47.4220 16.6086 6.6945 -15.6697 49.5594 -3.3162 -5.1593 2.7838 -28.9546 18.9465 0.0133 12.4059 0.3668 7.3676 25.3714 20.2482 1.6757 -0.7453 -1.9206 5.4154 -9.4291 -5.0485 0.0501 50.3108 -0.0796 1.4435 -29.2535 -7.1709 -1.4709 -1.0405 1.0867
-27.1329 90.6439 -169.7526 -1.4230 -9.5263 -5.9189 0.6785 9.3453 -0.0647 -0.6833 -1.9116 -0.8894 -4.1873 20.2324 -3.8844 -0.3990 15.9702 3.0070 0.9767 -3.7891 3.1407 2.5514 -10.8752 2.6851 -0.0139 -0.0680 0.0727 0.6390 -10.5117 -3.7341 -0.6778 -10.5425 3.8859 -8.7739 16.0539 -19.1160 -33.0498 -40.4675 -26.2165 1.9714 0.6870 -58.7269 32.9804 28.9230 6.4823 -15.6088 11.0005 16.2224 -60.5593 1.2907 2.8202 -5.3376 16.9413 12.4517 51.6001 -45.3725 25.0324 -0.9012 1.0911 92.6332 -19.7296 37.9554 -47.7179 16.4925 6.6670 -15.5405 49.4541 -3.2603 -5.1282 3.2661 -28.7732 19.6941 0.0823 9.9488 0.5686 6.3479 28.2802 19.2297 1.7045 -0.8266 -1.9278 6.0918 -10.5622 -5.1324 0.0203 50.4951 -0.1635 0.7033 -28.5309 -6.2097 -1.4801 -0.7970 1.1498
-27.3627 90.6649 -171.2981 -1.7542 -9.7462 -6.3823 0.9497 9.6018 -0.1241 -0.6576 -1.9170 -1.0871 -3.8613 20.3007 -3.9225 -0.3562 16.2817 2.9584 0.9603 -3.8106 3.0958 1.9194 -10.8228 3.0364 -0.0086 -0.0795 0.0566 0.6528 -10.4909 -3.7316 -0.6790 -10.5129 3.8505 -8.7583 16.2101 -19.6647 -32.1817 -40.8294 -25.5943 1.9772 0.6401 -56.9289 32.9489 26.9292 5.4695 -15.6168 11.0792 16.3280 -60.7021 1.3177 2.8756 -5.3786 16.6536 12.0598 50.7747 -45.5099 26.4390 -0.9523 0.7954 93.2705 -19.7497 37.9272 -47.9956 16.3006 6.6510 -15.5572 49.0659 -3.3191 -5.2010 3.8514 -28.7114 20.3335 0.0280 8.1643 0.6089 3.7070 30.9502 17.7678 1.6872 -0.9562 -2.0037 6.7613 -11.2827 -5.3306 0.0276 50.4491 -0.1739 -0.0628 -27.8239 -5.4340 -1.4742 -0.8264 1.1447
-27.5348 90.7170 -172.6926 -1.8953 -10.1217 -6.6182 1.1328 9.7861 -0.1853 -0.6134 -1.8447 -1.2816 -3.6498 20.3685 -4.0321 -0.4300 16.8484 2.8598 0.9655 -3.8083 3.1526 1.4568 -10.8539 3.3392 -0.0069 -0.0819 0.0464 0.6521 -10.4740 -3.7335 -0.6746 -10.4885 3.8320 -8.6739 16.1941 -20.1430 -31.1418 -40.9187 -25.3816 1.8475 0.8358 -54.5175 32.7889 24.8476 4.9512 -15.6214 10.9803 16.3658 -60.7655 1.3165 2.8943 -5.3633 16.5489 11.7016 49.8786 -45.6118 27.7966 -1.0970 0.6547 93.8390 -19.7931 37.8869 -48.2570 16.1570 6.6701 -15.5668 48.9981 -3.3162 -5.2157 4.1672 -28.7871 21.0506 -0.0065 7.7391 0.6055 0.2406 32.1694 15.8033 1.6340 -0.9491 -2.0216 7.1314 -11.6885 -5.5815 0.0139 50.1747 -0.2284 -0.7694 -26.9885 -4.6781 -1.4660 -0.8080 1.1155
-27.6855 90.8852 -173.9383 -1.9451 -10.6339 -6.7186 1.3321 9.9205 -0.2195 -0.5714 -1.7840 -1.4519 -3.5055 20.4921 -4.2089 -0.5919 17.5771 2.8042 0.9666 -3.8059 3.1420 1.1343 -10.7669 3.6285 -0.0075 -0.0883 0.0342 0.6475 -10.4808 -3.7468 -0.6709 -10.4836 3.8217 -8.5451 16.2727 -20.6226 -29.6749 -40.7927 -25.9444 1.7621 1.1644 -51.5258 32.7384 22.9888 5.2295 -15.7449 10.8868 16.4579 -60.6944 1.3064 2.9205 -5.4254 16.4920 11.3147 49.0324 -45.5093 28.9707 -1.2109 0.5648 94.2266 -19.4638 37.5723 -48.2656 16.1132 6.6805 -15.6221 49.0978 -3.3355 -5.1978 4.1818 -28.9222 21.9608 -0.0398 8.4367 0.5465 -3.7027 32.2276 13.5869 1.5775 -0.9508 -2.0237 7.3470 -11.7556 -5.7762 -0.0372 49.6985 -0.3052 -1.5102 -25.9860 -4.0942 -1.4522 -0.8452 1.0918
-27.7783 91.1245 -175.0671 -1.9380 -11.1970 -6.6476 1.5313 10.0070 -0.2525 -0.5270 -1.7339 -1.6018 -3.4176 20.5592 -4.4503 -0.7850 18.3287 2.7918 0.9783 -3.7835 3.1326 0.8897 -10.5236 3.8276 -0.0085 -0.0946 0.0284 0.6415 -10.4938 -3.7579 -0.6668 -10.4887 3.8220 -8.3062 16.3357 -21.0707 -28.5413 -40.6439 -26.6776 1.7491 1.4353 -48.6907 32.5312 21.5022 5.7285 -15.9141 10.8148 16.5081 -60.4034 1.2805 2.9509 -5.5588 16.4841 10.8766 48.2209 -45.0517 30.0086 -1.2821 0.5850 94.5511 -18.3671 37.2071 -47.9788 16.1057 6.6536 -15.6596 49.1613 -3.3556 -5.1601 3.9911 -28.9285 22.7093 -0.0625 9.6951 0.4959 -6.8050 31.7681 11.6755 1.5353 -0.9861 -2.0135 7.4481 -11.5754 -5.8670 -0.0856 49.0214 -0.3544 -2.0735 -24.8614 -3.8867 -1.4425 -0.8500 1.0644
-27.8283 91.4141 -176.0763 -1.9074 -11.6744 -6.4946 1.6894 10.0613 -0.2885 -0.4930 -1.7160 -1.7731 -3.3508 20.5421 -4.7032 -0.9109 18.9612 2.8020 0.9772 -3.7680 3.1843 0.7038 -10.1879 3.9102 -0.0125 -0.1014 0.0354 0.6366 -10.5182 -3.7527 -0.6698 -10.5061 3.8327 -7.9758 16.4808 -21.4199 -27.7827 -40.7527 -27.3581 1.7234 1.4904 -46.6234 32.1830 20.2296 5.9672 -15.9566 10.7592 16.5009 -60.0140 1.2389 2.9976 -5.6473 16.5427 10.4168 47.2373 -44.3554 31.0945 -1.3515 0.6105 94.9025 -16.6562 37.1461 -47.7159 16.1572 6.6404 -15.6459 49.3022 -3.3199 -5.0944 3.7031 -28.8142 23.1681 -0.0623 11.0762 0.4755 -8.6815 30.8866 10.3459 1.5097 -1.0140 -1.9778 7.5079 -11.4141 -5.8516 -0.1399 48.2621 -0.4049 -2.4517 -23.6964 -3.9023 -1.4392 -0.7916 1.0460
-27.8439 91.7306 -177.0183 -1.8523 -11.9346 -6.3478 1.7649 10.0703 -0.3729 -0.4693 -1.7151 -1.9054 -3.2892 20.3948 -4.9186 -0.8792 19.3186 2.8202 0.9514 -3.7525 3.2735 0.5131 -9.8699 3.9319 -0.0151 -0.1059 0.0377 0.6325 -10.5306 -3.7522 -0.6703 -10.5143 3.8371 -7.6109 16.6666 -21.6715 -27.2268 -40.9794 -27.9620 1.7203 1.4573 -45.3546 31.8013 19.2501 6.1232 -15.9156 10.7553 16.4864 -59.7480 1.2152 3.0636 -5.6847 16.5401 9.9780 46.3788 -43.6788 32.0392 -1.3837 0.6386 95.1981 -14.9361 37.5143 -47.5992 16.2573 6.6536 -15.5716 49.4926 -3.2566 -5.0166 3.3399 -28.6654 23.4690 -0.0514 12.3713 0.4960 -9.6359 29.7445 9.5427 1.5141 -1.0543 -1.9466 7.5734 -11.4292 -5.7440 -0.1883 47.4310 -0.4399 -2.6239 -22.5347 -4.1088 -1.4411 -0.6726 1.0264
